<?xml version="1.0" encoding="UTF-8"?>
<!DOCTYPE svg PUBLIC "-//W3C//DTD SVG 1.1//EN" "http://www.w3.org/Graphics/SVG/1.1/DTD/svg11.dtd">
<!-- Creator: CorelDRAW 2020 (64-Bit) -->
<svg xmlns="http://www.w3.org/2000/svg" xml:space="preserve" width="1.41663in" height="0.250031in" version="1.1" style="shape-rendering:geometricPrecision; text-rendering:geometricPrecision; image-rendering:optimizeQuality; fill-rule:evenodd; clip-rule:evenodd"
viewBox="0 0 1416.58 250.02"
 xmlns:xlink="http://www.w3.org/1999/xlink"
 xmlns:xodm="http://www.corel.com/coreldraw/odm/2003">
 <defs>
  <style type="text/css">
   <![CDATA[
    .fil0 {fill:#D91646;fill-rule:nonzero}
   ]]>
  </style>
 </defs>
 <g id="Слой_x0020_1">
  <metadata id="CorelCorpID_0Corel-Layer"/>
  <g id="_2175255596208">
   <g>
    <g>
     <polygon class="fil0" points="71.46,250.02 107.17,250.02 107.17,71.45 71.46,71.45 "/>
    </g>
    <g>
     <polygon class="fil0" points="-0,35.72 178.57,35.72 178.57,0 -0,0 "/>
    </g>
    <g>
     <polygon class="fil0" points="488.06,0 397.07,249.99 435.07,249.99 495.28,84.58 555.48,249.99 593.48,249.99 502.5,0 "/>
    </g>
    <g>
     <polygon class="fil0" points="1311.16,0 1220.18,249.99 1258.17,249.99 1318.38,84.58 1378.58,249.99 1416.58,249.99 1325.6,0 "/>
    </g>
    <g>
     <polygon class="fil0" points="811.85,249.99 847.57,249.99 847.57,0 811.85,0 "/>
    </g>
    <g>
     <polygon class="fil0" points="957.17,0 876.43,107.14 876.43,142.85 957.18,249.99 1001.39,249.99 1001.7,249.74 907.71,125 1001.71,0.24 1001.39,0 "/>
    </g>
   </g>
  </g>
 </g>
</svg>
