<?xml version="1.0" encoding="UTF-8"?>
<!DOCTYPE svg PUBLIC "-//W3C//DTD SVG 1.1//EN" "http://www.w3.org/Graphics/SVG/1.1/DTD/svg11.dtd">
<!-- Creator: CorelDRAW 2020 (64-Bit) -->
<svg xmlns="http://www.w3.org/2000/svg" xml:space="preserve" width="26" height="26" version="1.1" style="shape-rendering:geometricPrecision; text-rendering:geometricPrecision; image-rendering:optimizeQuality; fill-rule:evenodd; clip-rule:evenodd"
viewBox="0 0 260.42 260.42"
 xmlns:xlink="http://www.w3.org/1999/xlink"
 xmlns:xodm="http://www.corel.com/coreldraw/odm/2003">
 <defs>
  <style type="text/css">
   <![CDATA[
    .str0 {stroke:#0088CC;stroke-width:10.42;stroke-linejoin:round;stroke-miterlimit:2.61313}
    .fil0 {fill:none}
   ]]>
  </style>
 </defs>
 <g id="Слой_x0020_1">
  <metadata id="CorelCorpID_0Corel-Layer"/>
  <g id="_1326752788976">
   <g>
    <path class="fil0 str0" d="M130.21 5.21c69.04,0 125,55.96 125,125 0,69.04 -55.96,125 -125,125 -69.04,0 -125,-55.96 -125,-125 0,-69.04 55.96,-125 125,-125z"/>
   </g>
   <g>
    <path class="fil0 str0" d="M61.82 128.85c36.45,-15.89 60.75,-26.35 72.91,-31.41 34.71,-14.44 41.93,-16.95 46.63,-17.03 1.04,-0.02 3.34,0.24 4.84,1.46 0.99,0.87 1.62,2.07 1.77,3.38 0.18,0.98 0.39,3.19 0.22,4.93 -1.89,19.76 -10.02,67.73 -14.17,89.87 -1.75,9.37 -5.21,12.5 -8.54,12.81 -7.26,0.68 -12.77,-4.79 -19.8,-9.4 -11,-7.22 -17.21,-11.71 -27.9,-18.75 -12.33,-8.13 -4.33,-12.59 2.7,-19.9 1.84,-1.92 33.82,-31.01 34.44,-33.65 0.08,-0.33 0.16,-1.56 -0.57,-2.21 -0.73,-0.65 -1.81,-0.43 -2.59,-0.25 -1.1,0.25 -18.68,11.87 -52.73,34.85 -4.99,3.42 -9.5,5.08 -13.55,5 -4.47,-0.1 -13.05,-2.52 -19.43,-4.59 -7.83,-2.54 -14.05,-3.9 -13.51,-8.23 0.28,-2.24 3.39,-4.54 9.29,-6.9l0.01 0.02z"/>
   </g>
  </g>
 </g>
</svg>
