<?xml version="1.0" encoding="UTF-8"?>
<!DOCTYPE svg PUBLIC "-//W3C//DTD SVG 1.1//EN" "http://www.w3.org/Graphics/SVG/1.1/DTD/svg11.dtd">
<!-- Creator: CorelDRAW 2020 (64-Bit) -->
<svg xmlns="http://www.w3.org/2000/svg" xml:space="preserve" width="0.25in" height="0.25in" version="1.1" style="shape-rendering:geometricPrecision; text-rendering:geometricPrecision; image-rendering:optimizeQuality; fill-rule:evenodd; clip-rule:evenodd"
viewBox="0 0 250 250"
 xmlns:xlink="http://www.w3.org/1999/xlink"
 xmlns:xodm="http://www.corel.com/coreldraw/odm/2003">
 <defs>
  <style type="text/css">
   <![CDATA[
    .str0 {stroke:#25D366;stroke-width:10.42;stroke-linejoin:round;stroke-miterlimit:2.61313}
    .fil0 {fill:none}
   ]]>
  </style>
 </defs>
 <g id="Слой_x0020_1">
  <metadata id="CorelCorpID_0Corel-Layer"/>
  <g id="_1326748596128">
   <g>
    <g>
     <path class="fil0 str0" d="M125 244.79c-22.57,0 -44.53,-6.31 -63.57,-18.23 -0.79,-0.5 -1.7,-0.76 -2.64,-0.76 -0.49,0 -0.98,0.07 -1.44,0.21l-44.93 13.82c3.72,-14.81 8.83,-31.27 12.8,-45.46 -0.02,-0.55 0.05,-1.02 0.05,-1.5 0,-0.96 -0.28,-1.91 -0.8,-2.72 -12.57,-19.34 -19.26,-41.92 -19.26,-64.98 0,-0.06 0,-0.13 0,-0.19 0,-66.04 53.75,-119.79 119.79,-119.79 66.04,0 119.79,53.75 119.79,119.79 0,66.04 -53.75,119.79 -119.79,119.79z"/>
    </g>
    <g>
     <path class="fil0 str0" d="M149.73 192.66c-50.44,-7.55 -82.22,-57.54 -91.98,-82.91 -9.69,-25.18 7.58,-53.29 18.07,-53.29 9.67,0 18.59,26.53 19.13,30.47 0,2.59 -0.84,6.2 -10.85,16.2 -0.91,0.9 -1.43,2.14 -1.43,3.43 0,0.02 0,0.03 0,0.05 0,25.73 55.42,61.44 65.03,61.44 11.71,0 19.65,-23.21 26.05,-23.21 3.21,0 10.37,5.73 16.77,10.4 6.37,4.66 11.98,8.23 11.98,11.46 0,6.98 -13.84,31.83 -52.76,25.97l-0.01 0z"/>
    </g>
   </g>
  </g>
 </g>
</svg>
